<svg width="24" height="24" viewBox="0 0 24 24" fill="none" xmlns="http://www.w3.org/2000/svg">
<g clip-path="url(#clip0_540_75)">
<path d="M11.9992 0.75C7.08672 0.75 2.92422 3.8625 1.38672 8.25H22.6117C21.0742 3.8625 16.9117 0.75 11.9992 0.75Z" fill="#83BF4F"/>
<path d="M11.9992 23.25C16.9117 23.25 21.0742 20.1375 22.6117 15.75H1.38672C2.92422 20.1375 7.08672 23.25 11.9992 23.25Z" fill="#ED4C5C"/>
<path d="M1.3875 8.25C0.975 9.4125 0.75 10.6875 0.75 12C0.75 13.3125 0.975 14.5875 1.3875 15.75H22.6125C23.025 14.5875 23.25 13.3125 23.25 12C23.25 10.6875 23.025 9.4125 22.6125 8.25H1.3875Z" fill="#F9F9F9"/>
<path d="M22.2746 16.6123L22.1621 16.8373H22.2746V16.6123ZM1.83711 16.8373L1.72461 16.6123V16.8373H1.83711ZM2.09961 7.0498H1.91211C1.87461 7.0873 1.83711 7.12481 1.83711 7.16231H2.09961V7.0498Z" fill="white"/>
<path d="M2.09883 7.8752V7.7627H1.72383V7.5377H2.28633V7.8752H3.11133V7.0127H2.99883V7.7252H2.77383V7.0127H2.66133V7.7252H2.43633V7.0127H2.32383V7.3877H1.72383C1.68633 7.4627 1.64883 7.57519 1.61133 7.65019V7.8752H2.09883ZM2.09883 16.8377H1.83633C1.83633 16.8752 1.87383 16.9127 1.91133 16.9502H2.13633L2.09883 16.8377ZM1.72383 16.6127H2.28633V16.9502H3.11133V16.0877H2.99883V16.8002H2.77383V16.0877H2.66133V16.8002H2.43633V16.0877H2.32383V16.4627H1.68633C1.68633 16.5377 1.72383 16.5752 1.72383 16.6127Z" fill="white"/>
<path d="M2.09961 16.1252H1.53711C1.53711 16.1627 1.57461 16.2002 1.57461 16.2377H2.09961V16.1252ZM5.09961 7.8752H5.62461V7.7627H5.24961V7.5377H5.81211V7.8752H6.63711V7.0127H6.52461V7.7627H6.29961V7.0127H6.14961V7.7627H5.92461V7.0127H5.81211V7.3877H5.09961V7.8752ZM4.87461 7.8752V7.3877H4.38711V7.5377H4.76211V7.7627H4.19961V7.3877H3.37461V7.9127H3.48711V7.5377H4.04961V7.8752H4.87461Z" fill="white"/>
<path d="M3.67539 7.76231H3.86289V7.8748H3.67539V7.76231ZM3.33789 7.0498H5.62539V7.16231H3.33789V7.0498ZM4.38789 16.6123H4.76289V16.8373H4.20039V16.4623H3.37539V16.9873H3.48789V16.6123H4.05039V16.9498H4.87539V16.4623H4.38789V16.6123Z" fill="white"/>
<path d="M3.67539 16.8375H3.86289V16.95H3.67539V16.8375ZM3.33789 16.125H5.62539V16.2375H3.33789V16.125Z" fill="white"/>
<path d="M6.52461 16.8377H6.29961V16.0877H6.14961V16.8377H5.92461V16.0877H5.81211V16.4627H5.09961V16.9502H5.62461V16.8377H5.24961V16.6127H5.81211V16.9502H6.63711V16.0877H6.52461V16.8377ZM8.62461 7.8752H9.11211V7.7627H8.73711V7.5377H9.29961V7.8752H10.1246V7.0127H10.0121V7.7627H9.78711V7.0127H9.67461V7.7627H9.44961V7.0127H9.29961V7.3877H8.62461V7.8752ZM8.39961 7.8752V7.3877H7.87461V7.5377H8.24961V7.7627H7.68711V7.3877H6.86211V7.9127H6.97461V7.5377H7.57461V7.8752H8.39961Z" fill="white"/>
<path d="M6.82422 7.0498H9.11172V7.16231H6.82422V7.0498ZM7.19922 7.76231H7.38672V7.8748H7.19922V7.76231ZM10.0117 16.8373H9.78672V16.0873H9.67422V16.8373H9.44922V16.0873H9.29922V16.4623H8.62422V16.9498H9.11172V16.8373H8.73672V16.6123H9.29922V16.9498H10.1242V16.0873H10.0117V16.8373ZM7.19922 16.8373H7.38672V16.9498H7.19922V16.8373Z" fill="white"/>
<path d="M6.82422 16.1248H9.11172V16.2373H6.82422V16.1248ZM7.87422 16.6123H8.24922V16.8373H7.68672V16.4623H6.86172V16.9873H6.97422V16.6123H7.57422V16.9498H8.39922V16.4623H7.87422V16.6123ZM11.8867 7.8748V7.38731H11.3992V7.53731H11.7742V7.76231H11.1742V7.38731H10.3492V7.91231H10.4992V7.53731H11.0617V7.8748H11.8867ZM10.3492 7.0498H12.6367V7.16231H10.3492V7.0498Z" fill="white"/>
<path d="M10.6871 7.7627H10.8746V7.8752H10.6871V7.7627ZM12.1121 7.8752H12.5996V7.7627H12.2246V7.5377H12.8246V7.8752H13.6496V7.0127H13.4996V7.7627H13.2746V7.0127H13.1621V7.7627H12.9371V7.0127H12.8246V7.3877H12.1121V7.8752ZM10.3496 16.1252H12.6371V16.2377H10.3496V16.1252ZM11.3996 16.6127H11.7746V16.8377H11.1746V16.4627H10.3496V16.9877H10.4996V16.6127H11.0621V16.9502H11.8871V16.4627H11.3996V16.6127Z" fill="white"/>
<path d="M10.6875 16.8373H10.875V16.9498H10.6875V16.8373ZM13.5 16.8373H13.275V16.0873H13.1625V16.8373H12.9375V16.0873H12.825V16.4623H12.1125V16.9498H12.6V16.8373H12.225V16.6123H12.825V16.9498H13.65V16.0873H13.5V16.8373ZM14.175 7.76231H14.3625V7.8748H14.175V7.76231ZM13.8375 7.0498H16.125V7.16231H13.8375V7.0498Z" fill="white"/>
<path d="M15.6004 7.8752H16.1254V7.7627H15.7504V7.5377H16.3129V7.8752H17.1379V7.0127H17.0254V7.7627H16.8004V7.0127H16.6504V7.7627H16.4254V7.0127H16.3129V7.3877H15.6004V7.8752ZM15.3754 7.8752V7.3877H14.8879V7.5377H15.2629V7.7627H14.7004V7.3877H13.8754V7.9127H13.9879V7.5377H14.5504V7.8752H15.3754ZM13.8379 16.1252H16.1254V16.2377H13.8379V16.1252Z" fill="white"/>
<path d="M17.025 16.8379H16.8V16.0879H16.65V16.8379H16.425V16.0879H16.3125V16.4629H15.6V16.9504H16.125V16.8379H15.75V16.6129H16.3125V16.9504H17.1375V16.0879H17.025V16.8379ZM14.8875 16.6129H15.2625V16.8379H14.7V16.4629H13.875V16.9879H13.9875V16.6129H14.55V16.9504H15.375V16.4629H14.8875V16.6129Z" fill="white"/>
<path d="M14.1738 16.8377H14.3613V16.9502H14.1738V16.8377ZM18.8988 7.8752V7.3877H18.3738V7.5377H18.7488V7.7627H18.1863V7.3877H17.3613V7.9127H17.4738V7.5377H18.0738V7.8752H18.8988Z" fill="white"/>
<path d="M17.6992 7.76231H17.8867V7.8748H17.6992V7.76231ZM17.3242 7.0498H19.6117V7.16231H17.3242V7.0498Z" fill="white"/>
<path d="M19.1242 7.8752H19.6117V7.7627H19.2367V7.5377H19.7992V7.8752H20.6242V7.0127H20.5117V7.7627H20.2867V7.0127H20.1742V7.7627H19.9492V7.0127H19.7992V7.3877H19.1242V7.8752ZM17.6992 16.8377H17.8867V16.9502H17.6992V16.8377Z" fill="white"/>
<path d="M18.3742 16.6125H18.7492V16.8375H18.1867V16.4625H17.3617V16.9875H17.4742V16.6125H18.0742V16.95H18.8992V16.4625H18.3742V16.6125ZM17.3242 16.125H19.6117V16.2375H17.3242V16.125Z" fill="white"/>
<path d="M20.5125 16.8373H20.2875V16.0873H20.175V16.8373H19.95V16.0873H19.8V16.4623H19.125V16.9498H19.6125V16.8373H19.2375V16.6123H19.8V16.9498H20.625V16.0873H20.5125V16.8373ZM20.85 7.16231H22.1625C22.125 7.12481 22.125 7.0873 22.0875 7.0498H20.8125C20.85 7.0498 20.85 7.16231 20.85 7.16231ZM21.9 7.53731H22.275V7.76231H21.7125V7.4248H20.8875V7.91231H21V7.53731H21.5625V7.8748H22.3875V7.6873C22.35 7.6123 22.3125 7.4998 22.275 7.4248H21.9V7.53731Z" fill="white"/>
<path d="M21.1871 7.7627H21.3746V7.8752H21.1871V7.7627ZM21.1871 16.8377H21.3746V16.9502H21.1871V16.8377ZM20.8496 16.1252V16.2377H22.4246C22.4246 16.2002 22.4621 16.1627 22.4621 16.1252H20.8496ZM21.8996 16.6127H22.2746C22.3121 16.5752 22.3121 16.5377 22.3496 16.4627H21.8996V16.6127Z" fill="white"/>
<path d="M21.6746 16.8375V16.5H20.8496V16.9875H20.9996V16.6125H21.5621V16.95H22.0871C22.1246 16.9125 22.1246 16.875 22.1621 16.8375H21.6746Z" fill="white"/>
<path d="M13.6877 12.7127C14.0252 11.7377 13.6877 10.6502 12.9377 9.9752C13.8002 11.2502 13.4627 12.9377 12.2627 13.8377L12.3377 11.7377V10.0877C12.1877 10.0127 12.0752 9.9377 12.0002 9.8252C11.9252 9.9377 11.8127 10.0502 11.6627 10.0877V11.7377L11.7377 13.8377C10.5002 12.9377 10.2002 11.2502 11.0627 9.9752C10.2752 10.6502 9.97521 11.7377 10.3127 12.7127C10.5377 13.3877 10.9877 13.8752 11.5502 14.1752C11.2127 14.2877 10.8377 14.3627 10.4627 14.3627C10.9127 14.5127 11.3627 14.5127 11.7752 14.4377V14.5127L12.0002 14.8127L12.2252 14.5127V14.4377C12.6377 14.5127 13.0877 14.5127 13.5377 14.3627C13.1627 14.3627 12.7877 14.3252 12.4502 14.1752C13.0127 13.8752 13.4627 13.3502 13.6877 12.7127Z" fill="#ED4C5C"/>
<path d="M14.5122 10.9127C14.2122 10.4252 13.7247 10.0502 13.1622 9.90019C14.3997 10.8377 14.6622 12.6002 13.7247 13.8377C14.7747 13.2752 15.1122 11.9627 14.5122 10.9127ZM10.7997 9.90019C10.2372 10.0502 9.74975 10.3877 9.44975 10.9127C8.84975 11.9252 9.22474 13.2377 10.2372 13.8377C9.33724 12.6002 9.56224 10.8377 10.7997 9.90019ZM11.4372 9.7502C11.6247 9.8627 11.8872 9.8252 11.9997 9.6377C12.1122 9.8252 12.3747 9.8627 12.5622 9.7502C12.7122 9.6377 12.7872 9.4502 12.7122 9.2627C12.6747 9.4877 12.4872 9.6002 12.2622 9.5627C12.1497 9.5252 12.0747 9.4877 11.9997 9.3752C11.9622 9.4877 11.8497 9.5252 11.7372 9.5627C11.5122 9.6002 11.3247 9.4502 11.2872 9.2627C11.2122 9.4502 11.2872 9.6377 11.4372 9.7502Z" fill="#ED4C5C"/>
</g>
<defs>
<clipPath id="clip0_540_75">
<rect width="24" height="24" fill="white"/>
</clipPath>
</defs>
</svg>
