<svg width="68" height="64" viewBox="0 0 68 64" fill="none" xmlns="http://www.w3.org/2000/svg">
<path d="M68 47.9998C68 49.8858 67.204 51.6945 65.787 53.0281C64.3701 54.3617 62.4483 55.1109 60.4444 55.1109H7.55556C5.5517 55.1109 3.62991 54.3617 2.21297 53.0281C0.79603 51.6945 0 49.8858 0 47.9998V15.9998C0 14.1138 0.79603 12.3051 2.21297 10.9715C3.62991 9.63788 5.5517 8.88867 7.55556 8.88867H60.4444C62.4483 8.88867 64.3701 9.63788 65.787 10.9715C67.204 12.3051 68 14.1138 68 15.9998V47.9998Z" fill="#DE2910"/>
<path d="M21.0341 15.9593L22.4244 16.5922L23.5369 15.5859L23.3272 17.0259L24.6872 17.7122L23.1686 17.9682L22.8966 19.3975L22.1675 18.1175L20.6375 18.3148L21.7066 17.2677L21.0341 15.9593ZM29.8458 21.1877L29.1733 22.4944L30.2425 23.5433L28.7143 23.3442L27.9852 24.6259L27.7132 23.1948L26.1927 22.9388L27.5546 22.2526L27.343 20.8144L28.4575 21.8206L29.8458 21.1877ZM28.0381 27.9059L28.5444 29.2784L30.0876 29.3086L28.8579 30.185L29.3056 31.577L28.0381 30.7468L26.7707 31.577L27.2165 30.185L25.9868 29.3086L27.53 29.2784L28.0381 27.9059ZM21.0341 33.737L22.4244 34.3699L23.5369 33.3637L23.3272 34.8037L24.6872 35.4899L23.1686 35.7459L22.8966 37.1753L22.1675 35.8953L20.6375 36.0926L21.7066 35.0455L21.0341 33.737ZM13.2217 19.4686L14.9765 24.217L20.3145 24.3202L16.0588 27.3566L17.6058 32.1673L13.2217 29.2962L8.83757 32.1673L10.3846 27.3566L6.12891 24.3202L11.4669 24.217L13.2217 19.4686Z" fill="#FFDE02"/>
</svg>
